<svg width="24" height="24" viewBox="0 0 24 24" fill="none" xmlns="http://www.w3.org/2000/svg">
<path d="M0.857178 22.7825H13.7143M12 22.7825V18.4968H2.57146V22.7825M15.4286 9.92537L23.1429 17.6397M13.3492 1.71737L7.20346 7.86309C6.88208 8.18456 6.70154 8.62052 6.70154 9.07509C6.70154 9.52965 6.88208 9.96561 7.20346 10.2871L9.91889 13.0025C10.2404 13.3239 10.6763 13.5044 11.1309 13.5044C11.5855 13.5044 12.0214 13.3239 12.3429 13.0025L18.4886 6.8568C18.81 6.53533 18.9905 6.09937 18.9905 5.6448C18.9905 5.19023 18.81 4.75428 18.4886 4.4328L15.7715 1.71737C15.45 1.39599 15.014 1.21545 14.5595 1.21545C14.1049 1.21545 13.6689 1.39599 13.3475 1.71737H13.3492Z" stroke="white" stroke-width="1.71429" stroke-linecap="round" stroke-linejoin="round"/>
</svg>
